<svg fill="none" height="24" viewBox="0 0 24 24" width="24" xmlns="http://www.w3.org/2000/svg"><g fill="#000"><path d="m17.1484 10c.5523 0 1-.44772 1-1s-.4477-1-1-1c-.5522 0-1 .44772-1 1s.4478 1 1 1z"/><path d="m17.1484 16c.5523 0 1-.4477 1-1s-.4477-1-1-1c-.5522 0-1 .4477-1 1s.4478 1 1 1z"/><path d="m19.75 13c.5523 0 1-.4477 1-1s-.4477-1-1-1-1 .4477-1 1 .4477 1 1 1z"/><path d="m6.79883 10c.55228 0 1-.44772 1-1s-.44772-1-1-1c-.55229 0-1 .44772-1 1s.44771 1 1 1z"/><path d="m6.79883 16c.55228 0 1-.4477 1-1s-.44772-1-1-1c-.55229 0-1 .4477-1 1s.44771 1 1 1z"/><path d="m4.19922 13c.55228 0 1-.4477 1-1s-.44772-1-1-1c-.55229 0-1 .4477-1 1s.44771 1 1 1z"/><path d="m15.8984 6.19922c.5523 0 1-.44772 1-1 0-.55229-.4477-1-1-1-.5522 0-1 .44771-1 1 0 .55228.4478 1 1 1z"/><path d="m8.09961 6.19922c.55228 0 1-.44772 1-1 0-.55229-.44772-1-1-1-.55229 0-1 .44771-1 1 0 .55228.44771 1 1 1z"/><path d="m12.0488 7c.5523 0 1-.44772 1-1s-.4477-1-1-1-1 .44772-1 1 .4477 1 1 1z"/><path d="m15.8984 20c.5523 0 1-.4477 1-1s-.4477-1-1-1c-.5522 0-1 .4477-1 1s.4478 1 1 1z"/><path d="m8.09961 20c.55228 0 1-.4477 1-1s-.44772-1-1-1c-.55229 0-1 .4477-1 1s.44771 1 1 1z"/><path d="m12.0488 19.1992c.5523 0 1-.4477 1-1s-.4477-1-1-1-1 .4477-1 1 .4477 1 1 1z"/><path d="m13.75 10.25c.6904 0 1.25-.55964 1.25-1.25s-.5596-1.25-1.25-1.25-1.25.55964-1.25 1.25.5596 1.25 1.25 1.25z"/><path d="m10.25 10.25c.6904 0 1.25-.55964 1.25-1.25s-.5596-1.25-1.25-1.25c-.69036 0-1.25.55964-1.25 1.25s.55964 1.25 1.25 1.25z"/><path d="m15.5 13.25c.6904 0 1.25-.5596 1.25-1.25s-.5596-1.25-1.25-1.25-1.25.5596-1.25 1.25.5596 1.25 1.25 1.25z"/><path d="m8.5 13.25c.69036 0 1.25-.5596 1.25-1.25s-.55964-1.25-1.25-1.25-1.25.5596-1.25 1.25.55964 1.25 1.25 1.25z"/><path d="m10.25 16.25c.6904 0 1.25-.5596 1.25-1.25s-.5596-1.25-1.25-1.25c-.69036 0-1.25.5596-1.25 1.25s.55964 1.25 1.25 1.25z"/><path d="m13.75 16.25c.6904 0 1.25-.5596 1.25-1.25s-.5596-1.25-1.25-1.25-1.25.5596-1.25 1.25.5596 1.25 1.25 1.25z"/><path d="m11.9991 3.33031c-.49 0-.88-.39-.88-.88s.39-.88.88-.88.8801.39.8801.88-.3901.88-.8801.88z"/><path d="m17.2502 3.60156c-.42 0-.76-.34-.76-.75s.34-.75.75-.75.76.34.76.75-.33.75-.75.75z"/><path d="m6.75 3.60156c-.41 0-.75-.34-.75-.75s.33-.75.75-.75h.01001c.41 0 .75.34.75.75s-.34001.75-.76001.75z"/><path d="m11.9991 22.3811c-.49 0-.88-.39-.88-.88s.39-.88.88-.88.8801.39.8801.88-.3901.88-.8801.88z"/><path d="m17.2502 21.8516c-.42 0-.76-.34-.76-.75s.34-.75.75-.75.76.34.76.75-.33.75-.75.75z"/><path d="m6.75 21.8516c-.41 0-.75-.34-.75-.75s.33-.75.75-.75h.01001c.41 0 .75.34.75.75s-.34001.75-.76001.75z"/><path d="m1.5499 12.8811c-.48 0-.879978-.39-.879978-.87v-.01c0-.48.389978-.88.879978-.88s.88.39.88.88-.4.88-.88.88z"/><path d="m3.75 17.7483c-.41 0-.75-.33-.75-.75v-.01c0-.41.34-.75.75-.75s.75.34.75.75-.34.76-.75.76z"/><path d="m3.75 7.76172c-.41 0-.75-.34-.75-.75s.34-.75.75-.75.75.33.75.74v.01c0 .41-.34.75-.75.75z"/><path d="m22.4991 12.8811c-.48 0-.88-.39-.88-.87v-.01c0-.48.39-.88.88-.88s.8801.39.8801.88-.4001.88-.8801.88z"/><path d="m20.3008 17.7483c-.41 0-.75-.33-.75-.75v-.01c0-.41.34-.75.75-.75s.75.34.75.75-.34.76-.75.76z"/><path d="m20.3008 7.76172c-.41 0-.75-.34-.75-.75s.34-.75.75-.75.75.33.75.75v.01c0 .4-.34.74-.75.74z"/></g></svg>